<?xml version="1.0" encoding="UTF-8"?>
<svg id="Layer_2" data-name="Layer 2" xmlns="http://www.w3.org/2000/svg" viewBox="0 0 227.75 217.37">
  <defs>
    <style>
      .cls-1 {
        fill: #005cb9;
      }
    </style>
  </defs>
  <g id="Layer_1-2" data-name="Layer 1">
    <path class="cls-1" d="M226.54,88.58c-4.93-17.97-23.5-28.54-41.47-23.6-15.8,4.34-25.88,19.22-24.72,34.97l-37.31,10.24c-.78-.76-1.65-1.41-2.6-1.96v-41.39c15.49-3.06,27.18-16.71,27.18-33.1,0-18.64-15.11-33.74-33.74-33.74s-33.74,15.11-33.74,33.74c0,16.39,11.69,30.04,27.18,33.1v41.39c-.95.55-1.82,1.2-2.6,1.96l-37.31-10.24c1.16-15.75-8.92-30.63-24.72-34.97-17.97-4.93-36.54,5.63-41.47,23.6s5.63,36.54,23.6,41.47c15.8,4.34,32.07-3.31,39.11-17.45l37.18,10.21c.15.61.34,1.22.58,1.79l-20.67,28.4c-14.32-6.65-31.81-2.49-41.45,10.76-10.97,15.07-7.64,36.17,7.42,47.14,15.07,10.97,36.17,7.64,47.14-7.42,9.65-13.25,8.23-31.17-2.49-42.76l20.44-28.07c.59.08,1.2.14,1.81.14s1.22-.06,1.81-.14l20.44,28.07c-10.73,11.59-12.14,29.51-2.49,42.76,10.97,15.07,32.07,18.39,47.14,7.42,15.07-10.97,18.39-32.07,7.42-47.14-9.65-13.25-27.13-17.41-41.45-10.76l-20.67-28.4c.24-.58.42-1.18.58-1.79l37.18-10.21c7.05,14.13,23.31,21.78,39.11,17.45,17.97-4.93,28.54-23.5,23.61-41.47Z"/>
  </g>
</svg>