<?xml version="1.0" encoding="UTF-8"?>
<svg id="Layer_2" data-name="Layer 2" xmlns="http://www.w3.org/2000/svg" viewBox="0 0 1166.93 189.05">
  <defs>
    <style>
      .cls-1 {
        fill: #90c715;
      }

      .cls-2 {
        fill: #005cb9;
      }
    </style>
  </defs>
  <g id="Layer_1-2" data-name="Layer 1">
    <g>
      <g>
        <path class="cls-1" d="M275.89,68.52v-.08c-6.14,0-9.57,4.13-9.57,9.41s3.43,9.09,9.57,9.09h66.2c19.39,0,35.11,15.92,35.11,35.31s-15.72,35.3-35.11,35.3h-101.51v-26.09h101.31v.08c6.14,0,9.57-4.12,9.57-9.41s-3.43-9.09-9.57-9.09h-66.2c-19.39,0-35.11-15.92-35.11-35.31s15.72-35.3,35.11-35.3h101.51v26.09h-101.31Z"/>
        <path class="cls-1" d="M393.28,67.25v-24.77h137.13v24.61h-56.44v90.45h-24.77v-90.29h-55.92Z"/>
        <path class="cls-1" d="M637.36,42.59c20.13,0,34.09,15.23,34.09,35.2,0,14.21-7.17,26.52-18.66,32.35l28.85,47.63h-28.28l-26.7-44.05h-52.13v43.82h-24.74V42.59h87.56ZM574.54,88.88h62.82c7.22,0,9.35-6.93,9.35-11.08,0-3.84-2.13-10.46-9.35-10.46h-62.82v21.54Z"/>
        <path class="cls-1" d="M725.58,132.78h94.17v24.76h-118.94V42.48h118.94v24.77h-94.17v20.15h94.17v24.77h-94.17v20.62Z"/>
        <path class="cls-1" d="M925,42.72l60.44,114.82h-28.19l-11.31-21.43h-68.86l-11.31,21.43h-29.28l61.53-114.82h26.98ZM889.18,113.15h44.66l-22.33-43.08-22.33,43.08Z"/>
        <path class="cls-1" d="M1166.93,157.55h-26.1v-68.54l-38.38,68.54h-32.24l-38.38-68.54v68.54h-26.1V42.41h30.7l49.89,89.07,49.89-89.07h30.7v115.13Z"/>
      </g>
      <path class="cls-2" d="M197.02,77.03c-4.29-15.63-20.44-24.82-36.07-20.53-13.74,3.77-22.51,16.72-21.5,30.42l-32.45,8.91c-.68-.66-1.44-1.23-2.26-1.7v-36c13.47-2.66,23.64-14.53,23.64-28.79,0-16.21-13.14-29.35-29.35-29.35s-29.35,13.14-29.35,29.35c0,14.25,10.16,26.13,23.64,28.79v36c-.82.47-1.58,1.04-2.26,1.7l-32.45-8.91c1.01-13.7-7.76-26.64-21.5-30.42-15.63-4.29-31.78,4.9-36.07,20.53-4.29,15.63,4.9,31.78,20.53,36.07,13.74,3.77,27.89-2.88,34.02-15.17l32.34,8.88c.13.53.3,1.06.5,1.56l-17.98,24.7c-12.46-5.78-27.66-2.16-36.05,9.36-9.54,13.1-6.65,31.46,6.45,41,13.1,9.54,31.46,6.65,41-6.45,8.39-11.52,7.16-27.11-2.17-37.18l17.77-24.42c.52.07,1.04.12,1.58.12s1.06-.05,1.58-.12l17.77,24.42c-9.33,10.08-10.56,25.66-2.17,37.18,9.54,13.1,27.89,15.99,41,6.45,13.1-9.54,15.99-27.89,6.45-41-8.39-11.52-23.6-15.14-36.05-9.36l-17.98-24.7c.21-.5.37-1.02.5-1.56l32.34-8.88c6.13,12.29,20.27,18.95,34.02,15.17,15.63-4.29,24.82-20.44,20.53-36.07Z"/>
    </g>
  </g>
</svg>